NotoSansInscriptionalPahlavi-Regular.ufo
<glyph name="u10B60" format="2">
  <advance width="705"/>
  <unicode hex="10B60"/>
  <outline>
    <contour>
      <point x="15" y="0" type="line"/>
      <point x="620" y="0" type="line"/>
      <point x="620" y="536" type="line"/>
      <point x="531" y="536" type="line"/>
      <point x="531" y="74" type="line"/>
      <point x="337" y="74" type="line"/>
      <point x="237" y="536" type="line"/>
      <point x="146" y="536" type="line"/>
      <point x="247" y="74" type="line"/>
      <point x="15" y="74" type="line"/>
    </contour>
  </outline>
</glyph>
<glyph name="u10B61" format="2">
  <advance width="892"/>
  <unicode hex="10B61"/>
  <outline>
    <contour>
      <point x="15" y="-144" type="line"/>
      <point x="807" y="-144" type="line"/>
      <point x="807" y="336" type="line"/>
      <point x="718" y="336" type="line"/>
      <point x="718" y="-70" type="line"/>
      <point x="15" y="-70" type="line"/>
    </contour>
  </outline>
</glyph>
<glyph name="u10B62" format="2">
  <advance width="609"/>
  <unicode hex="10B62"/>
  <outline>
    <contour>
      <point x="15" y="0" type="line"/>
      <point x="531" y="0" type="line"/>
      <point x="498" y="130"/>
      <point x="460" y="223"/>
      <point x="392" y="342" type="curve" smooth="yes"/>
      <point x="275" y="546" type="line"/>
      <point x="199" y="502" type="line"/>
      <point x="316" y="298" type="line" smooth="yes"/>
      <point x="362" y="217"/>
      <point x="397" y="143"/>
      <point x="421" y="74" type="curve"/>
      <point x="15" y="74" type="line"/>
    </contour>
  </outline>
</glyph>
<glyph name="u10B63" format="2">
  <advance width="439"/>
  <unicode hex="10B63"/>
  <outline>
    <contour>
      <point x="115" y="-210" type="curve" smooth="yes"/>
      <point x="274" y="-210"/>
      <point x="401" y="-150"/>
      <point x="401" y="-10" type="curve" smooth="yes"/>
      <point x="401" y="107"/>
      <point x="326" y="194"/>
      <point x="189" y="239" type="curve"/>
      <point x="276" y="284"/>
      <point x="342" y="333"/>
      <point x="342" y="412" type="curve" smooth="yes"/>
      <point x="342" y="499"/>
      <point x="277" y="546"/>
      <point x="160" y="546" type="curve" smooth="yes"/>
      <point x="123" y="546"/>
      <point x="78" y="538"/>
      <point x="51" y="525" type="curve"/>
      <point x="76" y="453" type="line"/>
      <point x="90" y="462"/>
      <point x="134" y="472"/>
      <point x="160" y="472" type="curve" smooth="yes"/>
      <point x="221" y="472"/>
      <point x="252" y="451"/>
      <point x="252" y="413" type="curve" smooth="yes"/>
      <point x="252" y="357"/>
      <point x="212" y="324"/>
      <point x="109" y="266" type="curve"/>
      <point x="109" y="197" type="line"/>
      <point x="221" y="169"/>
      <point x="309" y="96"/>
      <point x="309" y="-10" type="curve" smooth="yes"/>
      <point x="309" y="-90"/>
      <point x="240" y="-136"/>
      <point x="119" y="-136" type="curve" smooth="yes"/>
      <point x="85" y="-136"/>
      <point x="5" y="-127"/>
      <point x="-25" y="-119" type="curve"/>
      <point x="-25" y="-193" type="line"/>
      <point x="10" y="-202"/>
      <point x="77" y="-210"/>
    </contour>
  </outline>
</glyph>
<glyph name="u10B64" format="2">
  <advance width="859"/>
  <unicode hex="10B64"/>
  <outline>
    <contour>
      <point x="572" y="-10" type="curve"/>
      <point x="605" y="-10"/>
      <point x="640" y="-6"/>
      <point x="679" y="0" type="curve"/>
      <point x="679" y="74" type="line"/>
      <point x="641" y="67"/>
      <point x="607" y="64"/>
      <point x="577" y="64" type="curve" smooth="yes"/>
      <point x="523" y="64"/>
      <point x="515" y="82"/>
      <point x="515" y="141" type="curve" smooth="yes"/>
      <point x="515" y="394" type="line"/>
      <point x="563" y="372"/>
      <point x="616" y="361"/>
      <point x="673" y="361" type="curve" smooth="yes"/>
      <point x="771" y="361"/>
      <point x="839" y="411"/>
      <point x="839" y="505" type="curve" smooth="yes"/>
      <point x="839" y="512"/>
      <point x="838" y="523"/>
      <point x="835" y="536" type="curve"/>
      <point x="746" y="536" type="line"/>
      <point x="749" y="527"/>
      <point x="750" y="518"/>
      <point x="750" y="507" type="curve" smooth="yes"/>
      <point x="750" y="466"/>
      <point x="721" y="435"/>
      <point x="675" y="435" type="curve" smooth="yes"/>
      <point x="517" y="435"/>
      <point x="475" y="546"/>
      <point x="299" y="546" type="curve" smooth="yes"/>
      <point x="154" y="546"/>
      <point x="60" y="450"/>
      <point x="60" y="297" type="curve" smooth="yes"/>
      <point x="60" y="206"/>
      <point x="95" y="77"/>
      <point x="139" y="0" type="curve"/>
      <point x="229" y="0" type="line"/>
      <point x="185" y="85"/>
      <point x="149" y="203"/>
      <point x="149" y="297" type="curve" smooth="yes"/>
      <point x="149" y="412"/>
      <point x="206" y="472"/>
      <point x="311" y="472" type="curve" smooth="yes"/>
      <point x="347" y="472"/>
      <point x="385" y="461"/>
      <point x="427" y="440" type="curve"/>
      <point x="427" y="146" type="line" smooth="yes"/>
      <point x="427" y="26"/>
      <point x="463" y="-10"/>
    </contour>
  </outline>
</glyph>
<glyph name="u10B65" format="2">
  <advance width="578"/>
  <unicode hex="10B65"/>
  <outline>
    <contour>
      <point x="116" y="0" type="line"/>
      <point x="532" y="0" type="line"/>
      <point x="532" y="74" type="line"/>
      <point x="316" y="74" type="line"/>
      <point x="431" y="138"/>
      <point x="489" y="227"/>
      <point x="489" y="339" type="curve" smooth="yes"/>
      <point x="489" y="469"/>
      <point x="406" y="546"/>
      <point x="267" y="546" type="curve" smooth="yes"/>
      <point x="164" y="546"/>
      <point x="83" y="492"/>
      <point x="52" y="396" type="curve"/>
      <point x="135" y="366" type="line"/>
      <point x="154" y="428"/>
      <point x="204" y="472"/>
      <point x="267" y="472" type="curve" smooth="yes"/>
      <point x="346" y="472"/>
      <point x="400" y="419"/>
      <point x="400" y="341" type="curve" smooth="yes"/>
      <point x="400" y="199"/>
      <point x="305" y="106"/>
      <point x="116" y="63" type="curve"/>
    </contour>
  </outline>
</glyph>
<glyph name="u10B66" format="2">
  <advance width="410"/>
  <unicode hex="10B66"/>
  <outline>
    <contour>
      <point x="42" y="-10" type="line"/>
      <point x="154" y="-10"/>
      <point x="256" y="20"/>
      <point x="350" y="80" type="curve"/>
      <point x="350" y="171" type="line"/>
      <point x="241" y="250"/>
      <point x="168" y="303"/>
      <point x="168" y="380" type="curve" smooth="yes"/>
      <point x="168" y="437"/>
      <point x="195" y="472"/>
      <point x="250" y="472" type="curve" smooth="yes"/>
      <point x="274" y="472"/>
      <point x="298" y="468"/>
      <point x="322" y="460" type="curve"/>
      <point x="344" y="532" type="line"/>
      <point x="315" y="542"/>
      <point x="284" y="546"/>
      <point x="250" y="546" type="curve" smooth="yes"/>
      <point x="147" y="546"/>
      <point x="80" y="479"/>
      <point x="80" y="377" type="curve" smooth="yes"/>
      <point x="80" y="278"/>
      <point x="155" y="213"/>
      <point x="274" y="124" type="curve"/>
      <point x="198" y="86"/>
      <point x="121" y="68"/>
      <point x="42" y="68" type="curve"/>
    </contour>
  </outline>
</glyph>
<glyph name="u10B67" format="2">
  <advance width="797"/>
  <unicode hex="10B67"/>
  <outline>
    <contour>
      <point x="89" y="-10" type="curve" smooth="yes"/>
      <point x="210" y="-10"/>
      <point x="293" y="53"/>
      <point x="293" y="170" type="curve" smooth="yes"/>
      <point x="293" y="258"/>
      <point x="258" y="295"/>
      <point x="258" y="360" type="curve" smooth="yes"/>
      <point x="258" y="430"/>
      <point x="292" y="472"/>
      <point x="352" y="472" type="curve" smooth="yes"/>
      <point x="412" y="472"/>
      <point x="449" y="431"/>
      <point x="449" y="361" type="curve" smooth="yes"/>
      <point x="449" y="293"/>
      <point x="407" y="256"/>
      <point x="407" y="171" type="curve" smooth="yes"/>
      <point x="407" y="69"/>
      <point x="470" y="-9"/>
      <point x="582" y="-9" type="curve" smooth="yes"/>
      <point x="690" y="-9"/>
      <point x="755" y="48"/>
      <point x="755" y="150" type="curve" smooth="yes"/>
      <point x="755" y="183"/>
      <point x="747" y="226"/>
      <point x="733" y="255" type="curve"/>
      <point x="643" y="255" type="line"/>
      <point x="659" y="224"/>
      <point x="667" y="188"/>
      <point x="667" y="150" type="curve" smooth="yes"/>
      <point x="667" y="93"/>
      <point x="639" y="65"/>
      <point x="582" y="65" type="curve" smooth="yes"/>
      <point x="528" y="65"/>
      <point x="492" y="108"/>
      <point x="492" y="170" type="curve" smooth="yes"/>
      <point x="492" y="235"/>
      <point x="537" y="296"/>
      <point x="537" y="361" type="curve" smooth="yes"/>
      <point x="537" y="478"/>
      <point x="470" y="546"/>
      <point x="353" y="546" type="curve" smooth="yes"/>
      <point x="234" y="546"/>
      <point x="170" y="478"/>
      <point x="170" y="360" type="curve" smooth="yes"/>
      <point x="170" y="294"/>
      <point x="205" y="244"/>
      <point x="205" y="168" type="curve" smooth="yes"/>
      <point x="205" y="97"/>
      <point x="168" y="64"/>
      <point x="89" y="64" type="curve" smooth="yes"/>
      <point x="58" y="64"/>
      <point x="30" y="68"/>
      <point x="5" y="77" type="curve"/>
      <point x="5" y="0" type="line"/>
      <point x="30" y="-6"/>
      <point x="58" y="-10"/>
    </contour>
  </outline>
</glyph>
<glyph name="u10B68" format="2">
  <advance width="437"/>
  <unicode hex="10B68"/>
  <outline>
    <contour>
      <point x="70" y="0" type="line"/>
      <point x="412" y="0" type="line"/>
      <point x="412" y="74" type="line"/>
      <point x="180" y="74" type="line"/>
      <point x="228" y="119"/>
      <point x="267" y="197"/>
      <point x="267" y="257" type="curve" smooth="yes"/>
      <point x="267" y="393"/>
      <point x="146" y="424"/>
      <point x="146" y="548" type="curve" smooth="yes"/>
      <point x="146" y="646"/>
      <point x="199" y="696"/>
      <point x="304" y="696" type="curve" smooth="yes"/>
      <point x="337" y="696"/>
      <point x="375" y="688"/>
      <point x="420" y="671" type="curve"/>
      <point x="447" y="741" type="line"/>
      <point x="418" y="758"/>
      <point x="352" y="770"/>
      <point x="306" y="770" type="curve" smooth="yes"/>
      <point x="158" y="770"/>
      <point x="55" y="693"/>
      <point x="55" y="550" type="curve" smooth="yes"/>
      <point x="55" y="396"/>
      <point x="176" y="362"/>
      <point x="176" y="257" type="curve" smooth="yes"/>
      <point x="176" y="173"/>
      <point x="140" y="123"/>
      <point x="70" y="59" type="curve"/>
    </contour>
  </outline>
</glyph>
<glyph name="u10B69" format="2">
  <advance width="487"/>
  <unicode hex="10B69"/>
  <outline>
    <contour>
      <point x="91" y="-10" type="line"/>
      <point x="274" y="47"/>
      <point x="422" y="170"/>
      <point x="422" y="339" type="curve" smooth="yes"/>
      <point x="422" y="470"/>
      <point x="337" y="546"/>
      <point x="194" y="546" type="curve" smooth="yes"/>
      <point x="114" y="546"/>
      <point x="53" y="526"/>
      <point x="-8" y="482" type="curve"/>
      <point x="36" y="417" type="line"/>
      <point x="81" y="454"/>
      <point x="133" y="472"/>
      <point x="192" y="472" type="curve" smooth="yes"/>
      <point x="273" y="472"/>
      <point x="331" y="421"/>
      <point x="331" y="341" type="curve" smooth="yes"/>
      <point x="331" y="210"/>
      <point x="236" y="133"/>
      <point x="91" y="71" type="curve"/>
    </contour>
  </outline>
</glyph>
<glyph name="u10B6A" format="2">
  <advance width="469"/>
  <unicode hex="10B6A"/>
  <outline>
    <contour>
      <point x="24" y="-240" type="line"/>
      <point x="440" y="-240" type="line"/>
      <point x="440" y="-166" type="line"/>
      <point x="224" y="-166" type="line"/>
      <point x="299" y="-128"/>
      <point x="357" y="-48"/>
      <point x="357" y="30" type="curve" smooth="yes"/>
      <point x="357" y="120"/>
      <point x="296" y="191"/>
      <point x="182" y="237" type="curve"/>
      <point x="261" y="286"/>
      <point x="322" y="333"/>
      <point x="322" y="412" type="curve" smooth="yes"/>
      <point x="322" y="499"/>
      <point x="257" y="546"/>
      <point x="140" y="546" type="curve" smooth="yes"/>
      <point x="103" y="546"/>
      <point x="58" y="538"/>
      <point x="31" y="525" type="curve"/>
      <point x="56" y="453" type="line"/>
      <point x="70" y="462"/>
      <point x="113" y="472"/>
      <point x="140" y="472" type="curve" smooth="yes"/>
      <point x="201" y="472"/>
      <point x="232" y="452"/>
      <point x="232" y="412" type="curve" smooth="yes"/>
      <point x="232" y="353"/>
      <point x="192" y="320"/>
      <point x="89" y="266" type="curve"/>
      <point x="89" y="192" type="line"/>
      <point x="173" y="180"/>
      <point x="266" y="116"/>
      <point x="266" y="29" type="curve" smooth="yes"/>
      <point x="266" y="-81"/>
      <point x="158" y="-146"/>
      <point x="24" y="-177" type="curve"/>
    </contour>
  </outline>
</glyph>
<glyph name="u10B6B" format="2">
  <advance width="482"/>
  <unicode hex="10B6B"/>
  <outline>
    <contour>
      <point x="28" y="-240" type="line"/>
      <point x="89" y="-187"/>
      <point x="144" y="-167"/>
      <point x="229" y="-150" type="curve" smooth="yes"/>
      <point x="371" y="-121"/>
      <point x="440" y="-41"/>
      <point x="440" y="78" type="curve" smooth="yes"/>
      <point x="440" y="202"/>
      <point x="354" y="281"/>
      <point x="228" y="281" type="curve" smooth="yes"/>
      <point x="209" y="281"/>
      <point x="191" y="279"/>
      <point x="174" y="275" type="curve"/>
      <point x="174" y="760" type="line"/>
      <point x="86" y="760" type="line"/>
      <point x="86" y="171" type="line"/>
      <point x="113" y="192"/>
      <point x="170" y="207"/>
      <point x="207" y="207" type="curve" smooth="yes"/>
      <point x="295" y="207"/>
      <point x="349" y="160"/>
      <point x="349" y="77" type="curve" smooth="yes"/>
      <point x="349" y="-10"/>
      <point x="303" y="-56"/>
      <point x="198" y="-77" type="curve" smooth="yes"/>
      <point x="127" y="-91"/>
      <point x="70" y="-113"/>
      <point x="28" y="-143" type="curve"/>
    </contour>
  </outline>
</glyph>
<glyph name="u10B6C" format="2">
  <advance width="643"/>
  <unicode hex="10B6C"/>
  <outline>
    <contour>
      <point x="324" y="-10" type="curve" smooth="yes"/>
      <point x="484" y="-10"/>
      <point x="589" y="92"/>
      <point x="589" y="269" type="curve" smooth="yes"/>
      <point x="589" y="436"/>
      <point x="495" y="546"/>
      <point x="324" y="546" type="curve" smooth="yes"/>
      <point x="279" y="546"/>
      <point x="231" y="538"/>
      <point x="182" y="523" type="curve"/>
      <point x="171" y="546"/>
      <point x="165" y="567"/>
      <point x="165" y="586" type="curve" smooth="yes"/>
      <point x="165" y="628"/>
      <point x="179" y="671"/>
      <point x="206" y="714" type="curve"/>
      <point x="128" y="714" type="line"/>
      <point x="105" y="683"/>
      <point x="87" y="623"/>
      <point x="87" y="584" type="curve" smooth="yes"/>
      <point x="87" y="551"/>
      <point x="91" y="529"/>
      <point x="109" y="494" type="curve"/>
      <point x="74" y="478"/>
      <point x="40" y="458"/>
      <point x="5" y="435" type="curve"/>
      <point x="47" y="371" type="line"/>
      <point x="79" y="392"/>
      <point x="111" y="411"/>
      <point x="144" y="427" type="curve"/>
      <point x="221" y="284" type="line"/>
      <point x="87" y="124" type="line"/>
      <point x="87" y="62" type="line"/>
      <point x="145" y="12"/>
      <point x="240" y="-10"/>
    </contour>
    <contour>
      <point x="324" y="63" type="curve" smooth="yes"/>
      <point x="266" y="63"/>
      <point x="212" y="75"/>
      <point x="163" y="98" type="curve"/>
      <point x="312" y="275" type="line"/>
      <point x="217" y="455" type="line"/>
      <point x="252" y="466"/>
      <point x="288" y="472"/>
      <point x="324" y="472" type="curve" smooth="yes"/>
      <point x="438" y="472"/>
      <point x="498" y="389"/>
      <point x="498" y="269" type="curve" smooth="yes"/>
      <point x="498" y="133"/>
      <point x="437" y="63"/>
    </contour>
  </outline>
</glyph>
<glyph name="u10B6D" format="2">
  <advance width="401"/>
  <unicode hex="10B6D"/>
  <outline>
    <contour>
      <point x="0" y="-240" type="line"/>
      <point x="459" y="-240" type="line"/>
      <point x="459" y="-166" type="line"/>
      <point x="123" y="-166" type="line"/>
      <point x="201" y="-94"/>
      <point x="259" y="-13"/>
      <point x="292" y="94" type="curve"/>
      <point x="217" y="217"/>
      <point x="168" y="389"/>
      <point x="164" y="536" type="curve"/>
      <point x="77" y="536" type="line"/>
      <point x="83" y="380"/>
      <point x="129" y="219"/>
      <point x="206" y="83" type="curve"/>
      <point x="169" y="-24"/>
      <point x="101" y="-109"/>
      <point x="0" y="-173" type="curve"/>
    </contour>
  </outline>
</glyph>
<glyph name="u10B6E" format="2">
  <advance width="731"/>
  <unicode hex="10B6E"/>
  <outline>
    <contour>
      <point x="48" y="-10" type="line"/>
      <point x="235" y="64"/>
      <point x="355" y="161"/>
      <point x="355" y="339" type="curve" smooth="yes"/>
      <point x="355" y="372"/>
      <point x="349" y="401"/>
      <point x="338" y="429" type="curve"/>
      <point x="382" y="458"/>
      <point x="426" y="472"/>
      <point x="469" y="472" type="curve" smooth="yes"/>
      <point x="544" y="472"/>
      <point x="586" y="418"/>
      <point x="586" y="341" type="curve" smooth="yes"/>
      <point x="586" y="232"/>
      <point x="515" y="144"/>
      <point x="373" y="68" type="curve"/>
      <point x="373" y="-10" type="line"/>
      <point x="538" y="52"/>
      <point x="677" y="184"/>
      <point x="677" y="339" type="curve" smooth="yes"/>
      <point x="677" y="468"/>
      <point x="602" y="546"/>
      <point x="476" y="546" type="curve" smooth="yes"/>
      <point x="409" y="546"/>
      <point x="350" y="527"/>
      <point x="299" y="489" type="curve"/>
      <point x="260" y="527"/>
      <point x="207" y="546"/>
      <point x="139" y="546" type="curve" smooth="yes"/>
      <point x="104" y="546"/>
      <point x="75" y="540"/>
      <point x="51" y="527" type="curve"/>
      <point x="51" y="453" type="line"/>
      <point x="80" y="466"/>
      <point x="109" y="472"/>
      <point x="139" y="472" type="curve" smooth="yes"/>
      <point x="214" y="472"/>
      <point x="264" y="416"/>
      <point x="264" y="341" type="curve" smooth="yes"/>
      <point x="264" y="205"/>
      <point x="192" y="131"/>
      <point x="48" y="68" type="curve"/>
    </contour>
  </outline>
</glyph>
<glyph name="u10B6F" format="2">
  <advance width="642"/>
  <unicode hex="10B6F"/>
  <outline>
    <contour>
      <point x="459" y="-120" type="line"/>
      <point x="547" y="-120" type="line"/>
      <point x="547" y="0" type="line"/>
      <point x="618" y="0" type="line"/>
      <point x="618" y="74" type="line"/>
      <point x="547" y="74" type="line"/>
      <point x="547" y="211" type="line" smooth="yes"/>
      <point x="547" y="423"/>
      <point x="489" y="546"/>
      <point x="298" y="546" type="curve" smooth="yes"/>
      <point x="141" y="546"/>
      <point x="55" y="438"/>
      <point x="55" y="268" type="curve" smooth="yes"/>
      <point x="55" y="88"/>
      <point x="170" y="0"/>
      <point x="358" y="0" type="curve" smooth="yes"/>
      <point x="459" y="0" type="line"/>
    </contour>
    <contour>
      <point x="369" y="74" type="line" smooth="yes"/>
      <point x="224" y="74"/>
      <point x="146" y="133"/>
      <point x="146" y="267" type="curve" smooth="yes"/>
      <point x="146" y="404"/>
      <point x="197" y="472"/>
      <point x="299" y="472" type="curve" smooth="yes"/>
      <point x="427" y="472"/>
      <point x="459" y="370"/>
      <point x="459" y="212" type="curve" smooth="yes"/>
      <point x="459" y="74" type="line"/>
    </contour>
  </outline>
</glyph>
<glyph name="u10B70" format="2">
  <advance width="680"/>
  <unicode hex="10B70"/>
  <outline>
    <contour>
      <point x="50" y="-240" type="line"/>
      <point x="482" y="-240" type="line"/>
      <point x="482" y="-166" type="line"/>
      <point x="177" y="-166" type="line"/>
      <point x="264" y="-102"/>
      <point x="313" y="-22"/>
      <point x="315" y="90" type="curve"/>
      <point x="211" y="171"/>
      <point x="140" y="247"/>
      <point x="140" y="356" type="curve" smooth="yes"/>
      <point x="140" y="424"/>
      <point x="179" y="472"/>
      <point x="242" y="472" type="curve" smooth="yes"/>
      <point x="305" y="472"/>
      <point x="334" y="436"/>
      <point x="334" y="362" type="curve" smooth="yes"/>
      <point x="334" y="249"/>
      <point x="384" y="193"/>
      <point x="485" y="193" type="curve" smooth="yes"/>
      <point x="585" y="193"/>
      <point x="638" y="258"/>
      <point x="638" y="374" type="curve" smooth="yes"/>
      <point x="638" y="399"/>
      <point x="636" y="421"/>
      <point x="633" y="440" type="curve"/>
      <point x="552" y="440" type="line"/>
      <point x="555" y="422"/>
      <point x="556" y="400"/>
      <point x="556" y="374" type="curve" smooth="yes"/>
      <point x="556" y="299"/>
      <point x="534" y="267"/>
      <point x="488" y="267" type="curve" smooth="yes"/>
      <point x="428" y="267"/>
      <point x="412" y="306"/>
      <point x="412" y="383" type="curve" smooth="yes"/>
      <point x="412" y="486"/>
      <point x="350" y="546"/>
      <point x="245" y="546" type="curve" smooth="yes"/>
      <point x="141" y="546"/>
      <point x="52" y="471"/>
      <point x="52" y="358" type="curve" smooth="yes"/>
      <point x="52" y="270"/>
      <point x="73" y="218"/>
      <point x="111" y="168" type="curve" smooth="yes"/>
      <point x="140" y="130"/>
      <point x="178" y="96"/>
      <point x="223" y="58" type="curve"/>
      <point x="217" y="-35"/>
      <point x="158" y="-91"/>
      <point x="50" y="-177" type="curve"/>
    </contour>
  </outline>
</glyph>
<glyph name="u10B71" format="2">
  <advance width="778"/>
  <unicode hex="10B71"/>
  <outline>
    <contour>
      <point x="74" y="0" type="line"/>
      <point x="713" y="0" type="line"/>
      <point x="713" y="74" type="line"/>
      <point x="522" y="74" type="line"/>
      <point x="624" y="152"/>
      <point x="676" y="243"/>
      <point x="676" y="339" type="curve" smooth="yes"/>
      <point x="676" y="459"/>
      <point x="607" y="546"/>
      <point x="484" y="546" type="curve" smooth="yes"/>
      <point x="444" y="546"/>
      <point x="410" y="540"/>
      <point x="380" y="529" type="curve"/>
      <point x="407" y="456" type="line"/>
      <point x="424" y="464"/>
      <point x="447" y="468"/>
      <point x="475" y="468" type="curve" smooth="yes"/>
      <point x="543" y="468"/>
      <point x="584" y="419"/>
      <point x="584" y="341" type="curve" smooth="yes"/>
      <point x="584" y="244"/>
      <point x="526" y="155"/>
      <point x="410" y="74" type="curve"/>
      <point x="202" y="74" type="line"/>
      <point x="305" y="159"/>
      <point x="356" y="247"/>
      <point x="356" y="339" type="curve" smooth="yes"/>
      <point x="356" y="459"/>
      <point x="287" y="546"/>
      <point x="164" y="546" type="curve" smooth="yes"/>
      <point x="125" y="546"/>
      <point x="90" y="540"/>
      <point x="60" y="529" type="curve"/>
      <point x="87" y="456" type="line"/>
      <point x="104" y="464"/>
      <point x="126" y="468"/>
      <point x="155" y="468" type="curve" smooth="yes"/>
      <point x="225" y="468"/>
      <point x="264" y="415"/>
      <point x="264" y="341" type="curve" smooth="yes"/>
      <point x="264" y="240"/>
      <point x="201" y="149"/>
      <point x="74" y="67" type="curve"/>
    </contour>
  </outline>
</glyph>
<glyph name="u10B72" format="2">
  <advance width="649"/>
  <unicode hex="10B72"/>
  <outline>
    <contour>
      <point x="10" y="-240" type="line"/>
      <point x="475" y="-240" type="line"/>
      <point x="475" y="-166" type="line"/>
      <point x="118" y="-166" type="line"/>
      <point x="187" y="-62"/>
      <point x="239" y="30"/>
      <point x="266" y="144" type="curve"/>
      <point x="259" y="195"/>
      <point x="248" y="252"/>
      <point x="233" y="313" type="curve"/>
      <point x="262" y="364"/>
      <point x="316" y="394"/>
      <point x="376" y="394" type="curve" smooth="yes"/>
      <point x="453" y="394"/>
      <point x="506" y="340"/>
      <point x="506" y="255" type="curve" smooth="yes"/>
      <point x="506" y="201"/>
      <point x="467" y="140"/>
      <point x="413" y="109" type="curve"/>
      <point x="476" y="54" type="line"/>
      <point x="551" y="109"/>
      <point x="597" y="179"/>
      <point x="597" y="256" type="curve" smooth="yes"/>
      <point x="597" y="389"/>
      <point x="505" y="472"/>
      <point x="378" y="472" type="curve" smooth="yes"/>
      <point x="316" y="472"/>
      <point x="250" y="443"/>
      <point x="209" y="398" type="curve"/>
      <point x="191" y="455"/>
      <point x="172" y="501"/>
      <point x="154" y="536" type="curve"/>
      <point x="55" y="536" type="line"/>
      <point x="115" y="430"/>
      <point x="166" y="262"/>
      <point x="177" y="141" type="curve"/>
      <point x="147" y="36"/>
      <point x="80" y="-91"/>
      <point x="10" y="-173" type="curve"/>
    </contour>
  </outline>
</glyph>
<glyph name="u10B78" format="2">
  <advance width="413"/>
  <unicode hex="10B78"/>
  <outline>
    <contour>
      <point x="178" y="-240" type="line"/>
      <point x="266" y="-240" type="line"/>
      <point x="266" y="379" type="line" smooth="yes"/>
      <point x="266" y="492"/>
      <point x="224" y="546"/>
      <point x="131" y="546" type="curve" smooth="yes"/>
      <point x="116" y="546"/>
      <point x="100" y="544"/>
      <point x="84" y="541" type="curve" smooth="yes"/>
      <point x="69" y="538"/>
      <point x="57" y="534"/>
      <point x="49" y="530" type="curve"/>
      <point x="49" y="461" type="line"/>
      <point x="69" y="468"/>
      <point x="91" y="472"/>
      <point x="115" y="472" type="curve" smooth="yes"/>
      <point x="158" y="472"/>
      <point x="178" y="442"/>
      <point x="178" y="378" type="curve" smooth="yes"/>
    </contour>
  </outline>
</glyph>
<glyph name="u10B7C" format="2">
  <advance width="587"/>
  <unicode hex="10B7C"/>
  <outline>
    <contour>
      <point x="377" y="0" type="line"/>
      <point x="465" y="0" type="line"/>
      <point x="465" y="380" type="line" smooth="yes"/>
      <point x="465" y="455"/>
      <point x="443" y="492"/>
      <point x="404" y="515" type="curve" smooth="yes"/>
      <point x="365" y="538"/>
      <point x="308" y="546"/>
      <point x="234" y="546" type="curve" smooth="yes"/>
      <point x="176" y="546"/>
      <point x="109" y="542"/>
      <point x="24" y="532" type="curve"/>
      <point x="33" y="458" type="line"/>
      <point x="95" y="466"/>
      <point x="180" y="472"/>
      <point x="237" y="472" type="curve" smooth="yes"/>
      <point x="343" y="472"/>
      <point x="377" y="452"/>
      <point x="377" y="369" type="curve" smooth="yes"/>
    </contour>
  </outline>
</glyph>
<glyph name="u10B7D" format="2">
  <advance width="462"/>
  <unicode hex="10B7D"/>
  <outline>
    <contour>
      <point x="152" y="-210" type="curve" smooth="yes"/>
      <point x="292" y="-210"/>
      <point x="389" y="-149"/>
      <point x="389" y="-18" type="curve" smooth="yes"/>
      <point x="389" y="96"/>
      <point x="321" y="175"/>
      <point x="196" y="211" type="curve"/>
      <point x="291" y="260"/>
      <point x="339" y="317"/>
      <point x="339" y="387" type="curve" smooth="yes"/>
      <point x="339" y="493"/>
      <point x="282" y="546"/>
      <point x="168" y="546" type="curve" smooth="yes"/>
      <point x="135" y="546"/>
      <point x="107" y="542"/>
      <point x="83" y="532" type="curve"/>
      <point x="83" y="460" type="line"/>
      <point x="108" y="468"/>
      <point x="132" y="472"/>
      <point x="157" y="472" type="curve" smooth="yes"/>
      <point x="220" y="472"/>
      <point x="250" y="446"/>
      <point x="250" y="387" type="curve" smooth="yes"/>
      <point x="250" y="332"/>
      <point x="205" y="281"/>
      <point x="117" y="235" type="curve"/>
      <point x="117" y="170" type="line"/>
      <point x="237" y="141"/>
      <point x="298" y="76"/>
      <point x="298" y="-16" type="curve" smooth="yes"/>
      <point x="298" y="-94"/>
      <point x="245" y="-136"/>
      <point x="151" y="-136" type="curve" smooth="yes"/>
      <point x="127" y="-136"/>
      <point x="101" y="-134"/>
      <point x="73" y="-129" type="curve"/>
      <point x="73" y="-203" type="line"/>
      <point x="104" y="-208"/>
      <point x="131" y="-210"/>
    </contour>
  </outline>
</glyph>
<glyph name="u10B7E" format="2">
  <advance width="546"/>
  <unicode hex="10B7E"/>
  <outline>
    <contour>
      <point x="151" y="-240" type="curve"/>
      <point x="260" y="-240" type="line"/>
      <point x="316" y="-194"/>
      <point x="389" y="-73"/>
      <point x="430" y="11" type="curve"/>
      <point x="430" y="74" type="line"/>
      <point x="153" y="74" type="line"/>
      <point x="165" y="171"/>
      <point x="179" y="251"/>
      <point x="195" y="315" type="curve"/>
      <point x="223" y="277"/>
      <point x="264" y="259"/>
      <point x="317" y="259" type="curve" smooth="yes"/>
      <point x="401" y="259"/>
      <point x="473" y="317"/>
      <point x="473" y="406" type="curve" smooth="yes"/>
      <point x="473" y="486"/>
      <point x="413" y="546"/>
      <point x="326" y="546" type="curve" smooth="yes"/>
      <point x="308" y="546"/>
      <point x="292" y="543"/>
      <point x="276" y="538" type="curve"/>
      <point x="307" y="604"/>
      <point x="348" y="678"/>
      <point x="398" y="760" type="curve"/>
      <point x="317" y="760" type="line"/>
      <point x="258" y="669"/>
      <point x="188" y="538"/>
      <point x="170" y="447" type="curve"/>
      <point x="106" y="339"/>
      <point x="85" y="168"/>
      <point x="73" y="0" type="curve"/>
      <point x="330" y="0" type="line"/>
      <point x="302" y="-64"/>
      <point x="208" y="-195"/>
    </contour>
    <contour>
      <point x="311" y="333" type="curve" smooth="yes"/>
      <point x="266" y="333"/>
      <point x="240" y="364"/>
      <point x="240" y="417" type="curve" smooth="yes"/>
      <point x="240" y="425" type="line"/>
      <point x="261" y="456"/>
      <point x="285" y="471"/>
      <point x="314" y="471" type="curve" smooth="yes"/>
      <point x="359" y="471"/>
      <point x="385" y="447"/>
      <point x="385" y="405" type="curve" smooth="yes"/>
      <point x="385" y="364"/>
      <point x="356" y="333"/>
    </contour>
  </outline>
</glyph>
<glyph name="u10B7F" format="2">
  <advance width="690"/>
  <unicode hex="10B7F"/>
  <outline>
    <contour>
      <point x="255" y="-240" type="line"/>
      <point x="710" y="-240" type="line"/>
      <point x="710" y="-166" type="line"/>
      <point x="343" y="-166" type="line"/>
      <point x="343" y="243" type="line"/>
      <point x="560" y="243" type="line"/>
      <point x="560" y="760" type="line"/>
      <point x="472" y="760" type="line"/>
      <point x="472" y="317" type="line"/>
      <point x="343" y="317" type="line"/>
      <point x="343" y="379" type="line" smooth="yes"/>
      <point x="343" y="492"/>
      <point x="294" y="546"/>
      <point x="194" y="546" type="curve" smooth="yes"/>
      <point x="102" y="546"/>
      <point x="49" y="489"/>
      <point x="49" y="392" type="curve" smooth="yes"/>
      <point x="49" y="293"/>
      <point x="102" y="243"/>
      <point x="217" y="243" type="curve" smooth="yes"/>
      <point x="255" y="243" type="line"/>
    </contour>
    <contour>
      <point x="217" y="317" type="line" smooth="yes"/>
      <point x="159" y="317"/>
      <point x="137" y="342"/>
      <point x="137" y="392" type="curve" smooth="yes"/>
      <point x="137" y="442"/>
      <point x="156" y="472"/>
      <point x="195" y="472" type="curve" smooth="yes"/>
      <point x="235" y="472"/>
      <point x="255" y="443"/>
      <point x="255" y="384" type="curve" smooth="yes"/>
      <point x="255" y="317" type="line"/>
    </contour>
  </outline>
</glyph>
<glyph name="u10B61.alt01" format="2">
  <advance width="350"/>
  <outline>
    <contour>
      <point x="-527" y="-352" type="line"/>
      <point x="265" y="-352" type="line"/>
      <point x="265" y="336" type="line"/>
      <point x="177" y="336" type="line"/>
      <point x="177" y="-277" type="line"/>
      <point x="-527" y="-277" type="line"/>
    </contour>
  </outline>
</glyph>
<glyph name="u10B61.alt02" format="2">
  <advance width="350"/>
  <outline>
    <contour>
      <point x="-527" y="-144" type="line"/>
      <point x="265" y="-144" type="line"/>
      <point x="265" y="336" type="line"/>
      <point x="177" y="336" type="line"/>
      <point x="177" y="-70" type="line"/>
      <point x="-527" y="-70" type="line"/>
    </contour>
  </outline>
</glyph>
<glyph name="u10B6B.alt01" format="2">
  <advance width="494"/>
  <outline>
    <contour>
      <point x="28" y="-95" type="line"/>
      <point x="89" y="-42"/>
      <point x="144" y="-22"/>
      <point x="229" y="-5" type="curve" smooth="yes"/>
      <point x="371" y="24"/>
      <point x="440" y="104"/>
      <point x="440" y="224" type="curve" smooth="yes"/>
      <point x="440" y="347"/>
      <point x="354" y="426"/>
      <point x="228" y="426" type="curve" smooth="yes"/>
      <point x="209" y="426"/>
      <point x="191" y="424"/>
      <point x="174" y="420" type="curve"/>
      <point x="174" y="760" type="line"/>
      <point x="86" y="760" type="line"/>
      <point x="86" y="316" type="line"/>
      <point x="113" y="337"/>
      <point x="170" y="352"/>
      <point x="207" y="352" type="curve" smooth="yes"/>
      <point x="295" y="352"/>
      <point x="349" y="305"/>
      <point x="349" y="222" type="curve" smooth="yes"/>
      <point x="349" y="135"/>
      <point x="303" y="89"/>
      <point x="198" y="68" type="curve" smooth="yes"/>
      <point x="127" y="54"/>
      <point x="70" y="32"/>
      <point x="28" y="2" type="curve"/>
    </contour>
  </outline>
</glyph>
